<svg xmlns="http://www.w3.org/2000/svg" viewBox="0 0 512 512" width="512" height="512">
<rect x="0" y="0" width="512" height="512" rx="112" fill="#000000"/>
<path d="M72 134 L72 72 L134 72" fill="none" stroke="#3b82f6" stroke-width="26" stroke-linecap="round" stroke-linejoin="round"/>
<path d="M378 72 L440 72 L440 134" fill="none" stroke="#3b82f6" stroke-width="26" stroke-linecap="round" stroke-linejoin="round"/>
<path d="M440 378 L440 440 L378 440" fill="none" stroke="#3b82f6" stroke-width="26" stroke-linecap="round" stroke-linejoin="round"/>
<path d="M134 440 L72 440 L72 378" fill="none" stroke="#3b82f6" stroke-width="26" stroke-linecap="round" stroke-linejoin="round"/>
<path d="M166 112 H302 L362 172 V384 Q362 400 346 400 H166 Q150 400 150 384 V128 Q150 112 166 112 Z" fill="#ffffff"/>
<path d="M302 112 L362 172 H318 Q302 172 302 156 Z" fill="#d3d5da"/>
<rect x="127" y="251" width="258" height="84" rx="14" fill="#f5b400"/>
<text x="256" y="309" text-anchor="middle" font-family="Arial Black, Arial Bold, Arial, Helvetica, sans-serif" font-weight="900" font-size="53" fill="#000000" textLength="172" lengthAdjust="spacingAndGlyphs" letter-spacing="2">KAM</text>
</svg>
